<svg width="24" height="24" viewBox="0 0 24 24" fill="none" xmlns="http://www.w3.org/2000/svg">
<path d="M17.9231 18C17.9231 20.2091 16.774 22 14.6923 22C12.6106 22 10.9231 20.5 10.3846 18C10.1264 16.8013 9.59737 16.0767 8.76923 15.5C6.61538 14 5 11.6923 5 9C5 5.13401 8.13401 2 12 2C15.866 2 19 5.13401 19 9" stroke="currentColor" stroke-width="1.5" stroke-linecap="round" stroke-linejoin="round"/>
<path d="M15 15C13.615 15 12.4922 13.9926 12.4922 12.75C12.4922 11.5074 13.615 10.5 15 10.5C15 8.48311 14.5362 6 11.9906 6C10.2002 6 9.15041 7.22416 9 9" stroke="currentColor" stroke-width="1.5" stroke-linecap="round" stroke-linejoin="round"/>
</svg>
